<svg id="Groupe_713" data-name="Groupe 713" xmlns="http://www.w3.org/2000/svg" xmlns:xlink="http://www.w3.org/1999/xlink" width="507.035" height="112.589" viewBox="0 0 507.035 112.589">
  <defs>
    <linearGradient id="linear-gradient" x1="0.048" y1="0.782" x2="1.281" y2="0.012" gradientUnits="objectBoundingBox">
      <stop offset="0" stop-color="#9b6bf9"/>
      <stop offset="1" stop-color="#4545ff"/>
    </linearGradient>
  </defs>
  <g id="Groupe_712" data-name="Groupe 712" transform="translate(89.997)">
    <path id="Tracé_2387" data-name="Tracé 2387" d="M556.728,443.029c0,21.453-16.464,37.18-38.022,37.18H492.68V405.86h26.027c21.672,0,38.022,15.612,38.022,37.18Zm-12.005,0c0-15.082-10.945-25.7-25.912-25.7H504.685v51.409h14.126c14.978,0,25.912-10.519,25.912-25.7Z" transform="translate(-492.68 -395.445)" fill="#031759"/>
    <path id="Tracé_2388" data-name="Tracé 2388" d="M576.342,403.168c0,4.355-3.295,7.546-7.858,7.546a7.371,7.371,0,0,1-7.754-7.546c0-4.355,3.4-7.328,7.754-7.328S576.342,398.917,576.342,403.168Zm-13.8,19.011h12.005V480.6H562.539Z" transform="translate(-489.998 -395.84)" fill="#031759"/>
    <path id="Tracé_2389" data-name="Tracé 2389" d="M641.871,421.228V478.9c0,17.421-10.945,28.573-28.251,28.573-13.918,0-26.557-7.224-29.1-21.776h12.431c2.016,7.546,8.5,11.049,16.36,11.049,10.727,0,16.568-6.049,16.568-17.421v-9.989a24.013,24.013,0,0,1-20.393,10.945c-15.612,0-26.983-12.639-26.983-30.164s11.579-30.164,26.983-30.164a23.65,23.65,0,0,1,20.393,11.257v-9.989h12.005Zm-11.9,28.9c0-10.831-7.754-18.7-17.951-18.7s-17.421,7.858-17.421,18.7,7.328,18.7,17.421,18.7S629.97,461.069,629.97,450.124Z" transform="translate(-489.14 -394.889)" fill="#031759"/>
    <path id="Tracé_2390" data-name="Tracé 2390" d="M663.912,403.168c0,4.355-3.295,7.546-7.858,7.546a7.371,7.371,0,0,1-7.754-7.546c0-4.355,3.4-7.328,7.754-7.328S663.912,398.917,663.912,403.168Zm-13.8,19.011h12.005V480.6H650.109Z" transform="translate(-486.547 -395.84)" fill="#031759"/>
    <path id="Tracé_2391" data-name="Tracé 2391" d="M716.462,477.236a36.271,36.271,0,0,1-16.672,4.251c-12.005,0-21.349-7.546-21.349-23.688V433.051H667.61V421.794h10.831V408.521l12.005-2.65V421.8h24.01v11.257h-24.01v24.114c0,8.5,3.929,13.169,11.475,13.169,3.721,0,7.858-1.278,12.431-2.869l2.12,9.77Z" transform="translate(-485.786 -395.445)" fill="#031759"/>
    <path id="Tracé_2392" data-name="Tracé 2392" d="M735.942,403.168c0,4.355-3.295,7.546-7.858,7.546a7.371,7.371,0,0,1-7.754-7.546c0-4.355,3.4-7.328,7.754-7.328S735.942,398.917,735.942,403.168Zm-13.814,19.011h12.005V480.6H722.128Z" transform="translate(-483.708 -395.84)" fill="#031759"/>
    <path id="Tracé_2393" data-name="Tracé 2393" d="M831.667,442.152v37.492H819.662V444.7c0-8.71-3.5-13.273-11.579-13.273-9.448,0-14.344,7.328-14.344,17.951l.1,30.268H781.734V444.7c0-8.71-3.5-13.273-11.579-13.273-9.448,0-14.23,7.328-14.23,17.951v30.268H743.92V421.219h12.005v9.344c4.033-6.694,9.771-10.623,18.169-10.623,8.918,0,15.186,4.355,18.055,12.213,3.929-7.546,10.519-12.213,19.759-12.213,12.317,0,19.759,8.284,19.759,22.2Z" transform="translate(-482.779 -394.89)" fill="#031759"/>
    <path id="Tracé_2394" data-name="Tracé 2394" d="M896.093,453.731h-47.48c.956,10.727,8.5,16.672,18.273,16.672,7.016,0,12.847-2.973,15.612-8.71h12.431c-4.563,13.065-15.716,19.229-28.147,19.229-17.743,0-30.382-12.743-30.382-30.382s12.535-30.59,30.164-30.59c18.8,0,30.694,14.552,29.53,33.781Zm-46.846-9.77h33.989c-1.809-7.972-7.858-13.6-16.672-13.6a17.51,17.51,0,0,0-17.317,13.6Z" transform="translate(-479.134 -394.89)" fill="#031759"/>
  </g>
  <path id="Tracé_2395" data-name="Tracé 2395" d="M468.028,416.576l-15.477,25.653-7.629-12.639a8.469,8.469,0,0,0-14.521,0l-7.629,12.639L407.3,416.576a8.277,8.277,0,0,1,7.089-12.546H460.95a8.277,8.277,0,0,1,7.089,12.546Zm0,51.316-15.477-25.653-7.629,12.639a8.486,8.486,0,0,1-14.521,0l-7.629-12.639L407.3,467.891a8.269,8.269,0,0,0,7.089,12.535H460.95a8.269,8.269,0,0,0,7.089-12.535Z" transform="translate(-406.095 -395.517)" fill="url(#linear-gradient)"/>
</svg>
