<svg xmlns="http://www.w3.org/2000/svg" width="487.81" height="108.32" viewBox="0 0 487.81 108.32">
  <g id="Groupe_716" data-name="Groupe 716" transform="translate(-406.095 -395.84)">
    <g id="Groupe_715" data-name="Groupe 715">
      <path id="Tracé_2396" data-name="Tracé 2396" d="M554.3,441.62c0,20.64-15.84,35.77-36.58,35.77H492.68V405.86h25.04c20.85,0,36.58,15.02,36.58,35.77Zm-11.55,0c0-14.51-10.53-24.73-24.93-24.73H504.23v49.46h13.59c14.41,0,24.93-10.12,24.93-24.73Z" fill="#fff"/>
      <path id="Tracé_2397" data-name="Tracé 2397" d="M575.75,402.89c0,4.19-3.17,7.26-7.56,7.26a7.092,7.092,0,0,1-7.46-7.26c0-4.19,3.27-7.05,7.46-7.05S575.75,398.8,575.75,402.89Zm-13.28,18.29h11.55v56.21H562.47Z" fill="#fff"/>
      <path id="Tracé_2398" data-name="Tracé 2398" d="M639.62,421.18v55.49c0,16.76-10.53,27.49-27.18,27.49-13.39,0-25.55-6.95-28-20.95H596.4c1.94,7.26,8.18,10.63,15.74,10.63,10.32,0,15.94-5.82,15.94-16.76v-9.61A23.1,23.1,0,0,1,608.46,478c-15.02,0-25.96-12.16-25.96-29.02s11.14-29.02,25.96-29.02a22.753,22.753,0,0,1,19.62,10.83v-9.61h11.55Zm-11.45,27.8c0-10.42-7.46-17.99-17.27-17.99s-16.76,7.56-16.76,17.99,7.05,17.99,16.76,17.99S628.17,459.51,628.17,448.98Z" fill="#fff"/>
      <path id="Tracé_2399" data-name="Tracé 2399" d="M663.32,402.89c0,4.19-3.17,7.26-7.56,7.26a7.092,7.092,0,0,1-7.46-7.26c0-4.19,3.27-7.05,7.46-7.05S663.32,398.8,663.32,402.89Zm-13.28,18.29h11.55v56.21H650.04Z" fill="#fff"/>
      <path id="Tracé_2400" data-name="Tracé 2400" d="M714.61,474.53a34.9,34.9,0,0,1-16.04,4.09c-11.55,0-20.54-7.26-20.54-22.79V432.02H667.61V421.19h10.42V408.42l11.55-2.55V421.2h23.1v10.83h-23.1v23.2c0,8.18,3.78,12.67,11.04,12.67,3.58,0,7.56-1.23,11.96-2.76l2.04,9.4Z" fill="#fff"/>
      <path id="Tracé_2401" data-name="Tracé 2401" d="M735.35,402.89c0,4.19-3.17,7.26-7.56,7.26a7.092,7.092,0,0,1-7.46-7.26c0-4.19,3.27-7.05,7.46-7.05S735.35,398.8,735.35,402.89Zm-13.29,18.29h11.55v56.21H722.06Z" fill="#fff"/>
      <path id="Tracé_2402" data-name="Tracé 2402" d="M828.34,441.31v36.07H816.79V443.76c0-8.38-3.37-12.77-11.14-12.77-9.09,0-13.8,7.05-13.8,17.27l.1,29.12H780.3V443.76c0-8.38-3.37-12.77-11.14-12.77-9.09,0-13.69,7.05-13.69,17.27v29.12H743.92V421.17h11.55v8.99c3.88-6.44,9.4-10.22,17.48-10.22,8.58,0,14.61,4.19,17.37,11.75,3.78-7.26,10.12-11.75,19.01-11.75,11.85,0,19.01,7.97,19.01,21.36Z" fill="#fff"/>
      <path id="Tracé_2403" data-name="Tracé 2403" d="M893.83,452.45H848.15c.92,10.32,8.18,16.04,17.58,16.04,6.75,0,12.36-2.86,15.02-8.38h11.96c-4.39,12.57-15.12,18.5-27.08,18.5-17.07,0-29.23-12.26-29.23-29.23s12.06-29.43,29.02-29.43c18.09,0,29.53,14,28.41,32.5Zm-45.07-9.4h32.7c-1.74-7.67-7.56-13.08-16.04-13.08a16.846,16.846,0,0,0-16.66,13.08Z" fill="#fff"/>
    </g>
    <path id="Tracé_2404" data-name="Tracé 2404" d="M465.68,416.1l-14.89,24.68-7.34-12.16a8.148,8.148,0,0,0-13.97,0l-7.34,12.16L407.25,416.1a7.963,7.963,0,0,1,6.82-12.07h44.8a7.963,7.963,0,0,1,6.82,12.07Zm0,49.37-14.89-24.68-7.34,12.16a8.164,8.164,0,0,1-13.97,0l-7.34-12.16-14.89,24.68a7.956,7.956,0,0,0,6.82,12.06h44.8a7.956,7.956,0,0,0,6.82-12.06Z" fill="#fff"/>
  </g>
</svg>
