<svg xmlns="http://www.w3.org/2000/svg" width="60.747" height="73.5" viewBox="0 0 60.747 73.5">
  <path id="Tracé_2405" data-name="Tracé 2405" d="M465.68,416.1l-14.89,24.68-7.34-12.16a8.148,8.148,0,0,0-13.97,0l-7.34,12.16L407.25,416.1a7.963,7.963,0,0,1,6.82-12.07h44.8a7.963,7.963,0,0,1,6.82,12.07Zm0,49.37-14.89-24.68-7.34,12.16a8.164,8.164,0,0,1-13.97,0l-7.34-12.16-14.89,24.68a7.956,7.956,0,0,0,6.82,12.06h44.8a7.956,7.956,0,0,0,6.82-12.06Z" transform="translate(-406.095 -404.03)" fill="#9ca3af"/>
</svg>
