<svg xmlns="http://www.w3.org/2000/svg" xmlns:xlink="http://www.w3.org/1999/xlink" width="1651.047" height="1263.596" viewBox="0 0 1651.047 1263.596"><defs><filter id="a" x="0" y="387.885" width="756.451" height="195.241" filterUnits="userSpaceOnUse"><feOffset dy="12" input="SourceAlpha"/><feGaussianBlur stdDeviation="12" result="b"/><feFlood flood-opacity="0.059"/><feComposite operator="in" in2="b"/></filter><filter id="c" x="778.869" y="620.147" width="852.117" height="195.241" filterUnits="userSpaceOnUse"><feOffset dy="12" input="SourceAlpha"/><feGaussianBlur stdDeviation="12" result="d"/><feFlood flood-opacity="0.059"/><feComposite operator="in" in2="d"/></filter><filter id="e" x="778.869" y="620.147" width="852.117" height="195.241" filterUnits="userSpaceOnUse"><feOffset dy="12" input="SourceAlpha"/><feGaussianBlur stdDeviation="12" result="f"/><feFlood flood-opacity="0.059"/><feComposite operator="in" in2="f"/><feComposite in="SourceGraphic"/></filter><filter id="g" x="214.551" y="762.05" width="480.795" height="343.83" filterUnits="userSpaceOnUse"><feOffset dy="3" input="SourceAlpha"/><feGaussianBlur stdDeviation="3" result="h"/><feFlood flood-opacity="0.161"/><feComposite operator="in" in2="h"/><feComposite in="SourceGraphic"/></filter><filter id="i" x="778.869" y="145.715" width="872.178" height="413.902" filterUnits="userSpaceOnUse"><feOffset dy="12" input="SourceAlpha"/><feGaussianBlur stdDeviation="12" result="j"/><feFlood flood-opacity="0.059"/><feComposite operator="in" in2="j"/></filter><filter id="k" x="778.869" y="145.715" width="872.178" height="413.902" filterUnits="userSpaceOnUse"><feOffset dy="12" input="SourceAlpha"/><feGaussianBlur stdDeviation="12" result="l"/><feFlood flood-opacity="0.059"/><feComposite operator="in" in2="l"/><feComposite in="SourceGraphic"/></filter></defs><g transform="translate(3.508 -1985.305)"><g transform="translate(242.307 2135.305)" fill="#0bca97" stroke="#707070" stroke-width="1" opacity="0.03"><circle cx="481.798" cy="481.798" r="481.798" stroke="none"/><circle cx="481.798" cy="481.798" r="481.298" fill="none"/></g><g transform="translate(32.492 2155.02)"><g transform="translate(443.182 170.951)" fill="none" stroke="#ececec" stroke-width="1" stroke-dasharray="4 0"><circle cx="266.829" cy="266.829" r="266.829" stroke="none"/><circle cx="266.829" cy="266.829" r="266.329" fill="none"/></g><g transform="translate(372.631 100.4)" fill="none" stroke="#bbb" stroke-width="1" stroke-dasharray="4 10"><circle cx="337.38" cy="337.38" r="337.38" stroke="none"/><circle cx="337.38" cy="337.38" r="336.88" fill="none"/></g><g transform="translate(567.938 287.201)"><g transform="translate(0 0)" fill="#fff"><path d="M 142.2009124755859 282.90185546875 C 132.6535491943359 282.90185546875 123.1126251220703 281.9400939941406 113.8432006835938 280.0432739257812 C 104.8100891113281 278.1948547363281 95.9248046875 275.4367065429688 87.43423461914062 271.8454895019531 C 79.09745025634766 268.3193054199219 71.0565185546875 263.9548034667969 63.53473281860352 258.8732299804688 C 56.08405685424805 253.8396301269531 49.07773208618164 248.0588836669922 42.71034240722656 241.6914825439453 C 36.34298324584961 235.3241271972656 30.56219863891602 228.3177642822266 25.52862739562988 220.8670959472656 C 20.44701957702637 213.3453369140625 16.08251953125 205.3043823242188 12.55637645721436 196.9675903320312 C 8.96516227722168 188.4770202636719 6.207019805908203 179.5917663574219 4.358591079711914 170.5586242675781 C 2.461769580841064 161.2891998291016 1.500019669532776 151.7482757568359 1.500019669532776 142.2009124755859 C 1.500019669532776 132.6535491943359 2.461769580841064 123.1126251220703 4.358591079711914 113.8432006835938 C 6.207019805908203 104.8100891113281 8.96516227722168 95.9248046875 12.55637645721436 87.43423461914062 C 16.08251953125 79.09745025634766 20.44701957702637 71.0565185546875 25.52862739562988 63.53473281860352 C 30.56219863891602 56.08405685424805 36.34298324584961 49.07773208618164 42.71034240722656 42.71034240722656 C 49.07773208618164 36.34298324584961 56.08405685424805 30.56219863891602 63.53473281860352 25.52862739562988 C 71.0565185546875 20.44701957702637 79.09745025634766 16.08251953125 87.43423461914062 12.55637645721436 C 95.9248046875 8.96516227722168 104.8100891113281 6.207019805908203 113.8432006835938 4.358591079711914 C 123.1126251220703 2.461769580841064 132.6535491943359 1.500019669532776 142.2009124755859 1.500019669532776 C 151.7482757568359 1.500019669532776 161.2891998291016 2.461769580841064 170.5586242675781 4.358591079711914 C 179.5917663574219 6.207019805908203 188.4770202636719 8.96516227722168 196.9675903320312 12.55637645721436 C 205.3043823242188 16.08251953125 213.3453369140625 20.44701957702637 220.8670959472656 25.52862739562988 C 228.3177642822266 30.56219863891602 235.3241271972656 36.34298324584961 241.6914825439453 42.71034240722656 C 248.0588836669922 49.07773208618164 253.8396301269531 56.08405685424805 258.8732299804688 63.53473281860352 C 263.9548034667969 71.0565185546875 268.3193054199219 79.09745025634766 271.8454895019531 87.43423461914062 C 275.4367065429688 95.9248046875 278.1948547363281 104.8100891113281 280.0432739257812 113.8432006835938 C 281.9400939941406 123.1126251220703 282.90185546875 132.6535491943359 282.90185546875 142.2009124755859 C 282.90185546875 151.7482757568359 281.9400939941406 161.2891998291016 280.0432739257812 170.5586242675781 C 278.1948547363281 179.5917663574219 275.4367065429688 188.4770202636719 271.8454895019531 196.9675903320312 C 268.3193054199219 205.3043823242188 263.9548034667969 213.3453369140625 258.8732299804688 220.8670959472656 C 253.8396301269531 228.3177642822266 248.0588836669922 235.3241271972656 241.6914825439453 241.6914825439453 C 235.3241271972656 248.0588836669922 228.3177642822266 253.8396301269531 220.8670959472656 258.8732299804688 C 213.3453369140625 263.9548034667969 205.3043823242188 268.3193054199219 196.9675903320312 271.8454895019531 C 188.4770202636719 275.4367065429688 179.5917663574219 278.1948547363281 170.5586242675781 280.0432739257812 C 161.2891998291016 281.9400939941406 151.7482757568359 282.90185546875 142.2009124755859 282.90185546875 Z" stroke="none"/><path d="M 142.2009124755859 3 C 132.7543334960938 3 123.3146057128906 3.95147705078125 114.1439056396484 5.828094482421875 C 105.2077941894531 7.65667724609375 96.41795349121094 10.38522338867188 88.01856994628906 13.9378662109375 C 79.77099609375 17.42630004882812 71.81594848632812 21.74417114257812 64.37445068359375 26.77157592773438 C 57.00286865234375 31.75167846679688 50.07087707519531 37.47114562988281 43.77099609375 43.77099609375 C 37.47114562988281 50.07087707519531 31.75167846679688 57.00286865234375 26.77157592773438 64.37445068359375 C 21.74417114257812 71.81594848632812 17.42630004882812 79.77099609375 13.9378662109375 88.01856994628906 C 10.38522338867188 96.41795349121094 7.65667724609375 105.2077941894531 5.828094482421875 114.1439056396484 C 3.95147705078125 123.3146057128906 3 132.7543334960938 3 142.2009124755859 C 3 151.6474914550781 3.95147705078125 161.0872192382812 5.828094482421875 170.2579040527344 C 7.65667724609375 179.1940307617188 10.38522338867188 187.9838714599609 13.9378662109375 196.3832550048828 C 17.42630004882812 204.6308288574219 21.74417114257812 212.5858764648438 26.77157592773438 220.0273742675781 C 31.75167846679688 227.3989562988281 37.47114562988281 234.3309478759766 43.77099609375 240.6308288574219 C 50.07087707519531 246.9306793212891 57.00286865234375 252.650146484375 64.37445068359375 257.6302490234375 C 71.81594848632812 262.6576538085938 79.77099609375 266.9755249023438 88.01856994628906 270.4639587402344 C 96.41795349121094 274.0166015625 105.2077941894531 276.7451477050781 114.1439056396484 278.57373046875 C 123.3146057128906 280.4503479003906 132.7543334960938 281.4018249511719 142.2009124755859 281.4018249511719 C 151.6474914550781 281.4018249511719 161.0872192382812 280.4503479003906 170.2579040527344 278.57373046875 C 179.1940307617188 276.7451477050781 187.9838714599609 274.0166015625 196.3832550048828 270.4639587402344 C 204.6308288574219 266.9755249023438 212.5858764648438 262.6576538085938 220.0273742675781 257.6302490234375 C 227.3989562988281 252.650146484375 234.3309478759766 246.9306793212891 240.6308288574219 240.6308288574219 C 246.9306793212891 234.3309478759766 252.650146484375 227.3989562988281 257.6302490234375 220.0273742675781 C 262.6576538085938 212.5858764648438 266.9755249023438 204.6308288574219 270.4639587402344 196.3832550048828 C 274.0166015625 187.9838714599609 276.7451477050781 179.1940307617188 278.57373046875 170.2579040527344 C 280.4503479003906 161.0872192382812 281.4018249511719 151.6474914550781 281.4018249511719 142.2009124755859 C 281.4018249511719 132.7543334960938 280.4503479003906 123.3146057128906 278.57373046875 114.1439056396484 C 276.7451477050781 105.2077941894531 274.0166015625 96.41795349121094 270.4639587402344 88.01856994628906 C 266.9755249023438 79.77099609375 262.6576538085938 71.81594848632812 257.6302490234375 64.37445068359375 C 252.650146484375 57.00286865234375 246.9306793212891 50.07087707519531 240.6308288574219 43.77099609375 C 234.3309478759766 37.47114562988281 227.3989562988281 31.75167846679688 220.0273742675781 26.77157592773438 C 212.5858764648438 21.74417114257812 204.6308288574219 17.42630004882812 196.3832550048828 13.9378662109375 C 187.9838714599609 10.38522338867188 179.1940307617188 7.65667724609375 170.2579040527344 5.828094482421875 C 161.0872192382812 3.95147705078125 151.6474914550781 3 142.2009124755859 3 M 142.2009124755859 0 C 220.7362976074219 0 284.4018249511719 63.66552734375 284.4018249511719 142.2009124755859 C 284.4018249511719 220.7362976074219 220.7362976074219 284.4018249511719 142.2009124755859 284.4018249511719 C 63.66552734375 284.4018249511719 0 220.7362976074219 0 142.2009124755859 C 0 63.66552734375 63.66552734375 0 142.2009124755859 0 Z" stroke="none" fill="#0bca97"/></g><g transform="translate(59.011 57.97)"><path d="M32.411,13.053a6.482,6.482,0,0,0-9.653-8.642A83.994,83.994,0,0,0,2.465,46.55a6.481,6.481,0,1,0,12.783,2.144A71.031,71.031,0,0,1,32.411,13.053ZM148.364,4.411a6.482,6.482,0,1,0-9.662,8.642,71.039,71.039,0,0,1,17.172,35.641,6.484,6.484,0,0,0,12.791-2.143,84,84,0,0,0-20.309-42.14Z" transform="translate(-2.375 -2.25)" fill="#0bca97"/><path d="M81.254,2.25A58.335,58.335,0,0,0,22.918,60.585v6.482A71.014,71.014,0,0,1,4.605,114.772a6.482,6.482,0,0,0,2.575,10.423,212.216,212.216,0,0,0,41.751,10.742,32.408,32.408,0,1,0,64.644,0,212.453,212.453,0,0,0,41.742-10.751,6.482,6.482,0,0,0,2.575-10.414,71.013,71.013,0,0,1-18.3-47.705V60.585A58.335,58.335,0,0,0,81.254,2.25ZM61.809,138.366c0-.294,0-.579.017-.864a216.49,216.49,0,0,0,38.856,0l.017.864a19.445,19.445,0,0,1-38.89,0Z" transform="translate(1.932 -2.25)" fill="#0bca97" fill-rule="evenodd"/></g></g><g transform="translate(0 242.17)"><g transform="translate(0 0)"><g transform="matrix(1, 0, 0, 1, -36, -411.89)" filter="url(#a)"><path d="M15.881,0H668.57c8.771,0,15.88,10.611,15.88,23.7v75.84c0,13.089-7.11,23.7-15.88,23.7H15.881C7.11,123.241,0,112.63,0,99.541V23.7C0,10.611,7.11,0,15.881,0Z" transform="translate(36 411.89)" fill="#fff"/></g><path d="M15.881,0H668.57c8.771,0,15.88,10.611,15.88,23.7v75.84c0,13.089-7.11,23.7-15.88,23.7H15.881C7.11,123.241,0,112.63,0,99.541V23.7C0,10.611,7.11,0,15.881,0Z" transform="translate(0)" fill="#fff"/><text transform="translate(137.46 68.94)" fill="#8a8a8a" font-size="26" font-family="SegoeUI, Segoe UI"><tspan x="0" y="0">Yann just </tspan><tspan y="0" font-family="SegoeUI-Semibold, Segoe UI" font-weight="600">validated </tspan><tspan y="0">your TimeSheet!</tspan></text></g><g transform="translate(51.49 34.968)"><path d="M448.357,412.591,437.8,430.1l-5.206-8.625a5.779,5.779,0,0,0-9.909,0l-5.206,8.625-10.561-17.5a5.648,5.648,0,0,1,4.837-8.561h31.775a5.648,5.648,0,0,1,4.837,8.561Zm0,35.016L437.8,430.1l-5.206,8.625a5.791,5.791,0,0,1-9.909,0l-5.206-8.625-10.561,17.5a5.643,5.643,0,0,0,4.837,8.554h31.775a5.643,5.643,0,0,0,4.837-8.554Z" transform="translate(-406.095 -404.03)" fill="#7069fa"/></g></g><g transform="translate(778.869 474.432)"><g transform="translate(0 0)"><g transform="matrix(1, 0, 0, 1, -814.87, -644.15)" filter="url(#c)"><path d="M18.1,0H762.017c10,0,18.1,10.611,18.1,23.7v75.84c0,13.089-8.1,23.7-18.1,23.7H18.1c-10,0-18.1-10.611-18.1-23.7V23.7C0,10.611,8.1,0,18.1,0Z" transform="translate(814.87 644.15)" fill="#fff"/></g><g transform="matrix(1, 0, 0, 1, -814.87, -644.15)" filter="url(#e)"><path d="M18.1,0H762.017c10,0,18.1,10.611,18.1,23.7v75.84c0,13.089-8.1,23.7-18.1,23.7H18.1c-10,0-18.1-10.611-18.1-23.7V23.7C0,10.611,8.1,0,18.1,0Z" transform="translate(814.87 644.15)" fill="#fff"/></g><rect width="284.014" height="21.708" rx="10" transform="translate(140.081 51.085)" fill="rgba(246,246,246,0.47)"/><rect width="85.023" height="21.708" rx="10" transform="translate(644.795 51.085)" fill="rgba(246,246,246,0.47)"/></g><ellipse cx="28.944" cy="29.849" rx="28.944" ry="29.849" transform="translate(42.395 31.186)" fill="rgba(246,246,246,0.47)"/></g><path d="M20.943,31.822,18.876,24.1m0,0-3.822,3.388.866-14.419,7.959,12.055-5-1.023ZM16.312,2.25V5.676m8.883.253L22.772,8.351m6.1,6.46H25.447m-15.6,6.46L7.43,23.693m-.254-8.881H3.75m6.1-6.46L7.43,5.93" transform="translate(382.882 668.261)" fill="none" stroke="#000" stroke-linecap="round" stroke-linejoin="round" stroke-width="1.5"/><g transform="translate(187.551 554.689)"><g transform="translate(0 43.646)"><g transform="matrix(1, 0, 0, 1, -223.55, -768.05)" filter="url(#g)"><path d="M14.417,0h433.96a14.417,14.417,0,0,1,14.417,14.417v297a14.417,14.417,0,0,1-14.417,14.417H14.417A14.417,14.417,0,0,1,0,311.413v-297A14.417,14.417,0,0,1,14.417,0Z" transform="translate(223.55 768.05)" fill="#383838"/></g><rect width="418.173" height="63.826" rx="10" transform="translate(22.693 96.935)" fill="#fff"/><g transform="translate(47.577 35.241)"><text transform="translate(60.951 26)" fill="#dcdcdc" font-size="24" font-family="SegoeUI-Semilight, Segoe UI" font-weight="300"><tspan x="0" y="0">Push notifications</tspan></text><path d="M11.321,21.861h3.411M7.058,24.419H19a2.558,2.558,0,0,0,2.558-2.558V4.808A2.558,2.558,0,0,0,19,2.25H7.058A2.558,2.558,0,0,0,4.5,4.808V21.861A2.558,2.558,0,0,0,7.058,24.419Z" transform="translate(-4.5 4.919)" fill="none" stroke="#dcdcdc" stroke-linecap="round" stroke-linejoin="round" stroke-width="1"/></g><g transform="translate(42.891 110.002)"><text transform="translate(65.636 26)" fill="#535353" font-size="24" font-family="SegoeUI-Semibold, Segoe UI" font-weight="600"><tspan x="0" y="0">E-mail</tspan></text><path d="M30.364,7.744V22.882a3.244,3.244,0,0,1-3.244,3.244H5.494A3.244,3.244,0,0,1,2.25,22.882V7.744m28.114,0A3.244,3.244,0,0,0,27.12,4.5H5.494A3.244,3.244,0,0,0,2.25,7.744m28.114,0v.35a3.244,3.244,0,0,1-1.543,2.763L18.008,17.51a3.244,3.244,0,0,1-3.4,0L3.793,10.858A3.244,3.244,0,0,1,2.25,8.1V7.744" transform="translate(-2.25 4.08)" fill="none" stroke="#535353" stroke-linecap="round" stroke-linejoin="round" stroke-width="1"/></g><g transform="translate(42.891 182.701)"><text transform="translate(65.636 27)" fill="#dcdcdc" font-size="25" font-family="SegoeUI-Semilight, Segoe UI" font-weight="300"><tspan x="0" y="0">SMS</tspan></text><path d="M9.819,10.569H22.795M9.819,14.894h6.488M2.25,17.071a4.641,4.641,0,0,0,3.9,4.652q2.442.359,4.935.546a1.647,1.647,0,0,1,1.247.722l3.972,5.959,3.972-5.959a1.644,1.644,0,0,1,1.247-.722q2.477-.185,4.935-.546a4.64,4.64,0,0,0,3.9-4.654V8.394a4.64,4.64,0,0,0-3.9-4.654,70.073,70.073,0,0,0-20.308,0,4.641,4.641,0,0,0-3.9,4.654V17.07Z" transform="translate(-2.25 3.886)" fill="none" stroke="#dcdcdc" stroke-linecap="round" stroke-linejoin="round" stroke-width="1"/></g><g transform="translate(45.696 253.13)"><text transform="translate(62.833 26)" fill="#dcdcdc" font-size="24" font-family="SegoeUI-Semilight, Segoe UI" font-weight="300"><tspan x="0" y="0">In-app</tspan></text><path d="M17.673,26.2,16,19.944m0,0L12.9,22.688l.7-11.677,6.445,9.762L16,19.944Zm-9.27-.329a10.172,10.172,0,1,1,17.366-7.192M9.345,17A6.473,6.473,0,1,1,20.4,12.423" transform="translate(-3.75 4.497)" fill="none" stroke="#dcdcdc" stroke-linecap="round" stroke-linejoin="round" stroke-width="1"/></g><path d="M30.539,48.326,27.317,36.294m0,0-5.955,5.279,1.35-22.466,12.4,18.782-7.8-1.594Zm-4-34.044V7.588m13.84.394-3.774,3.774m9.506,10.066H37.556m-24.3,10.066L9.484,35.66m-.4-13.838H3.75m9.506-10.066L9.484,7.984" transform="translate(269.426 107.752)" fill="none" stroke="#000" stroke-linecap="round" stroke-linejoin="round" stroke-width="1"/></g><text transform="translate(0.683 26)" fill="#535353" font-size="24" font-family="SegoeUI-Bold, Segoe UI" font-weight="700"><tspan x="0" y="0">Enable notifications</tspan></text></g><g transform="translate(778.869 0)"><g transform="translate(0 0)"><g transform="matrix(1, 0, 0, 1, -814.87, -169.72)" filter="url(#i)"><rect width="800.178" height="341.902" rx="20" transform="translate(814.87 169.72)" fill="#fff"/></g><g transform="matrix(1, 0, 0, 1, -814.87, -169.72)" filter="url(#k)"><rect width="800.178" height="341.902" rx="20" transform="translate(814.87 169.72)" fill="#fff"/></g><text transform="translate(144.721 87.127)" fill="#8a8a8a" font-size="26" font-family="SegoeUI-Bold, Segoe UI" font-weight="700"><tspan x="0" y="0">Two days</tspan><tspan y="0" font-family="SegoeUI-Semibold, Segoe UI" font-weight="600"> </tspan><tspan y="0" font-family="SegoeUI, Segoe UI" font-weight="400">left to submit your TimeSheet</tspan></text><rect width="537.275" height="21.708" rx="10" transform="translate(144.721 110.349)" fill="rgba(246,246,246,0.47)"/><rect width="589.736" height="21.708" rx="10" transform="translate(144.721 139.294)" fill="rgba(246,246,246,0.47)"/><rect width="589.736" height="56.079" rx="10" transform="translate(144.721 170.047)" fill="rgba(246,246,246,0.47)"/><g transform="translate(142.911 247.834)"><g transform="translate(0 0)" fill="none" stroke="#7069fa" stroke-width="1"><rect width="202.609" height="50.652" rx="5" stroke="none"/><rect x="0.5" y="0.5" width="201.609" height="49.652" rx="4.5" fill="none"/></g><text transform="translate(77.787 29.472)" fill="#7069fa" font-size="14" font-family="SegoeUI-Semibold, Segoe UI" font-weight="600"><tspan x="0" y="0">Submit</tspan></text></g></g><g transform="translate(52.081 145.998)"><path d="M448.357,412.591,437.8,430.1l-5.206-8.625a5.779,5.779,0,0,0-9.909,0l-5.206,8.625-10.561-17.5a5.648,5.648,0,0,1,4.837-8.561h31.775a5.648,5.648,0,0,1,4.837,8.561Zm0,35.016L437.8,430.1l-5.206,8.625a5.791,5.791,0,0,1-9.909,0l-5.206-8.625-10.561,17.5a5.643,5.643,0,0,0,4.837,8.554h31.775a5.643,5.643,0,0,0,4.837-8.554Z" transform="translate(-406.095 -404.03)" fill="#7069fa"/></g></g></g></g></svg>